<svg width="18" height="12" viewBox="0 0 18 12" fill="none" xmlns="http://www.w3.org/2000/svg">
<path d="M15.9385 8.33333H16.5922V5.47619H15.9888H13.9777H1.81006C1.7095 5.47619 1.65922 5.47619 1.60894 5.42857C1.55866 5.47619 1.4581 5.47619 1.35754 5.47619V8.33333H1.86034C2.26257 8.33333 2.56425 8.61905 2.56425 9V9.04762C2.56425 9.52381 2.76536 9.90476 3.06704 10.1905V10.2381C3.36872 10.5238 3.82123 10.6667 4.27374 10.6667C4.77654 10.6667 5.17877 10.4762 5.48045 10.1905C5.88268 9.95238 6.03352 9.52381 6.03352 9.04762V9C6.03352 8.61905 6.3352 8.33333 6.73743 8.33333H11.0615C11.4637 8.33333 11.7654 8.61905 11.7654 9V9.04762C11.7654 9.52381 11.9665 9.90476 12.2682 10.1905L12.3184 10.2381C12.5698 10.5238 13.0223 10.7143 13.4749 10.7143C13.9777 10.7143 14.3799 10.5238 14.6816 10.2381C15.0335 9.95238 15.2346 9.52381 15.2346 9.04762V9C15.2346 8.66667 15.5363 8.38095 15.9385 8.33333ZM13.4749 8.42857C13.8771 8.42857 14.1788 8.71429 14.1788 9.09524C14.1788 9.47619 13.8771 9.7619 13.4749 9.7619C13.0726 9.7619 12.771 9.47619 12.771 9.09524C12.771 8.71429 13.1229 8.42857 13.4749 8.42857ZM4.32402 8.42857C4.67598 8.42857 5.02793 8.71429 5.02793 9.04762C5.02793 9.42857 4.72626 9.71429 4.32402 9.71429C3.92179 9.71429 3.62011 9.42857 3.62011 9.04762C3.62011 8.71429 3.92179 8.42857 4.32402 8.42857ZM13.1732 4.71429L11.4637 1.33333H3.82123L2.16201 4.71429H13.1732ZM17.2961 9.66667H16.5419C16.4413 10.2381 16.1397 10.7619 15.6872 11.1429C15.1341 11.6667 14.3296 12 13.4749 12C12.6201 12 11.8659 11.6667 11.3128 11.1905L11.2626 11.1429C10.8603 10.7619 10.5587 10.2381 10.4078 9.66667H7.39106C7.24022 10.2381 6.93855 10.7619 6.53631 11.1429C5.93296 11.6667 5.17877 12 4.32402 12C3.46927 12 2.71508 11.6667 2.16201 11.1905L2.11173 11.1429C1.7095 10.7619 1.40782 10.2381 1.25698 9.66667H0.703911C0.301676 9.66667 0 9.38095 0 9V4.85714C0 4.47619 0.301676 4.19048 0.703911 4.19048H0.905028L2.76536 0.428571C2.86592 0.190476 3.11732 0 3.41899 0H11.9162C12.1676 0 12.419 0.142857 12.5196 0.380952L14.4302 4.19048H17.2961C17.6983 4.19048 18 4.47619 18 4.85714V9C18 9.38095 17.6983 9.66667 17.2961 9.66667Z" fill="#C78E66"/>
</svg>
