<svg xmlns="http://www.w3.org/2000/svg" width="512" height="512" viewBox="0 0 512 512" fill="none">
<path d="M256 0C115.2 0 0 115.2 0 256C0 396.8 115.2 512 256 512C396.8 512 512 396.8 512 256C512 115.2 396.8 0 256 0ZM256 494.933C124.587 494.933 17.067 387.413 17.067 256C17.067 124.587 124.587 17.067 256 17.067C387.413 17.067 494.933 124.587 494.933 256C494.933 387.413 387.413 494.933 256 494.933Z" fill="#C78E66"/>
<path d="M286.544 70.783L283.307 69.974C279.04 69.121 275.627 68.267 271.36 68.267C261.973 67.414 250.88 67.414 241.493 68.267C237.226 69.12 233.813 69.12 229.546 69.974L221.866 70.827V71.408C176.938 79.748 137.501 104.225 109.836 138.545L109.226 138.24L104.959 144.213C96.426 156.16 88.746 168.106 83.626 180.906L81.066 187.733L81.165 187.802C72.845 208.967 68.266 231.974 68.266 256C68.266 275.582 71.311 294.485 76.939 312.269L76.799 312.32L79.359 320C83.626 331.093 88.746 342.187 94.719 352.427C94.719 354.134 95.572 354.987 96.426 355.84C98.133 358.4 100.693 361.813 102.399 364.373L106.666 369.493L106.712 369.473C139.107 411.929 189.118 440.309 245.583 443.436C248.864 443.725 252.428 443.732 255.999 443.732C259.57 443.732 263.133 443.725 266.415 443.436C322.189 440.347 371.67 412.622 404.093 371.027L404.479 371.199L408.746 365.226C411.306 362.666 413.013 359.253 414.719 356.693C414.719 356.341 414.869 355.841 415.1 355.318C415.488 354.701 415.879 354.087 416.26 353.465C416.315 353.403 416.37 353.335 416.426 353.279C416.767 352.695 417.095 352.098 417.43 351.509C434.118 323.483 443.732 290.812 443.732 255.999C443.733 163.142 375.403 85.482 286.544 70.783ZM273.067 349.867V425.81C273.054 425.811 273.04 425.812 273.027 425.814C272.162 425.814 270.495 425.814 269.654 425.814C260.267 426.667 251.734 426.667 242.347 425.814C241.92 425.814 241.28 425.814 240.64 425.814V349.867C240.64 337.067 234.667 325.974 223.573 319.147C212.479 312.32 199.68 312.32 188.586 317.44L114.346 349.013C113.493 348.16 113.493 347.306 112.639 346.453L110.932 343.893C106.665 337.066 103.252 330.24 99.839 322.56L168.106 296.96L168.959 296.107C178.346 290.987 185.172 279.894 186.879 267.094C188.586 254.294 185.172 241.494 176.639 232.961L102.428 181.781C106.016 174.413 110.117 167.335 114.688 160.599L180.906 193.708C191.999 201.388 208.213 201.388 221.013 194.561C232.106 187.734 238.933 177.494 238.933 164.694V86.19C238.946 86.189 238.96 86.188 238.973 86.186C239.838 86.186 241.505 86.186 242.346 86.186C251.733 85.333 261.119 85.333 269.653 86.186C270.494 86.186 272.162 86.186 273.026 86.186C273.039 86.187 273.053 86.188 273.066 86.19V165.547C273.066 176.64 278.186 186.88 287.573 192.854C299.52 199.681 316.586 200.534 330.24 194.561L396.8 160.428C401.067 167.255 405.333 174.935 408.747 181.761L336.214 232.108L335.361 232.961C326.828 240.641 323.414 253.441 325.121 267.094C326.828 279.894 333.654 290.987 343.041 296.107L413.014 321.707C409.601 329.387 406.187 336.214 401.921 343.04L400.214 345.6C399.361 346.453 399.361 347.307 398.507 348.16L325.12 317.44C314.027 311.467 301.227 312.32 290.133 319.147C279.893 325.973 273.067 337.067 273.067 349.867ZM350.72 282.453C345.6 279.04 342.187 273.066 341.333 266.24C340.48 258.56 342.186 250.88 346.453 246.613L416.464 198.034C423.059 216.152 426.666 235.675 426.666 256C426.666 273.901 423.865 291.178 418.693 307.423L350.72 282.453ZM386.824 146.722L322.56 179.2C314.88 183.467 303.787 182.613 296.96 178.347C292.693 175.787 290.133 171.52 290.133 165.547V88.788C328.598 96.676 362.447 117.614 386.824 146.722ZM221.867 88.788V164.694C221.867 172.374 217.6 176.641 213.334 179.201C205.654 182.614 196.267 182.614 189.441 178.348L125.479 146.367C149.832 117.444 183.56 96.643 221.867 88.788ZM85.333 256C85.333 235.597 88.965 216.001 95.609 197.824L164.693 245.76C168.96 250.027 170.666 257.707 169.813 265.387C168.106 273.067 165.546 279.04 160.426 281.6L92.971 306.379C88.011 290.439 85.333 273.517 85.333 256ZM122.991 362.612L193.707 332.8C199.68 329.387 206.507 330.24 212.48 333.653C218.453 337.066 221.867 343.04 221.867 349.866V423.212C182.238 415.086 147.51 393.106 122.991 362.612ZM290.133 423.212V349.866C290.133 343.039 293.546 337.066 298.666 333.653C304.639 330.24 311.466 329.386 318.293 332.8L388.003 363.859C363.545 393.706 329.221 415.197 290.133 423.212Z" fill="#C78E66"/>
<path d="M256 213.333C232.107 213.333 213.333 232.106 213.333 256C213.333 279.893 232.106 298.667 256 298.667C279.893 298.667 298.667 279.894 298.667 256C298.667 232.107 279.893 213.333 256 213.333ZM256 281.6C241.493 281.6 230.4 270.507 230.4 256C230.4 241.493 241.493 230.4 256 230.4C270.507 230.4 281.6 241.493 281.6 256C281.6 270.507 270.507 281.6 256 281.6Z" fill="#C78E66"/>
</svg>