<svg width="16" height="20" viewBox="0 0 16 20" fill="none" xmlns="http://www.w3.org/2000/svg">
<path d="M15.6154 2.79843C15.5 2.69406 15.3654 2.61579 15.2115 2.5636C15.0705 2.49837 14.9231 2.46575 14.7692 2.46575C14.7564 2.46575 14.7436 2.46575 14.7308 2.46575C14.7179 2.46575 14.7051 2.46575 14.6923 2.46575C14.6923 2.46575 14.6859 2.47228 14.6731 2.48532C14.6603 2.48532 14.641 2.48532 14.6154 2.48532C14.6026 2.48532 14.5833 2.48532 14.5577 2.48532C14.5449 2.48532 14.5192 2.48532 14.4808 2.48532C14.4551 2.48532 14.4231 2.48532 14.3846 2.48532C14.359 2.48532 14.3269 2.48532 14.2885 2.48532C14.25 2.48532 14.2115 2.48532 14.1731 2.48532C13.25 2.48532 12.4295 2.394 11.7115 2.21135C11.3397 2.12003 10.9423 1.93738 10.5192 1.66341C10.0962 1.38943 9.6859 1.08937 9.28846 0.763209C8.90385 0.424005 8.69231 0.241357 8.65385 0.215264C8.44872 0.0717547 8.22436 0 7.98077 0C7.85256 0 7.73077 0.0195695 7.61538 0.0587084C7.5 0.084801 7.39103 0.136986 7.28846 0.215264C7.28846 0.215264 7.25641 0.24788 7.19231 0.313112C7.12821 0.378343 7.03846 0.463144 6.92308 0.567515C6.82051 0.658839 6.69872 0.769733 6.55769 0.900196C6.41667 1.03066 6.25641 1.16112 6.07692 1.29159C5.89744 1.42205 5.71154 1.54599 5.51923 1.66341C5.33974 1.78082 5.14103 1.89172 4.92308 1.99609C4.71795 2.08741 4.51282 2.15916 4.30769 2.21135C3.58974 2.394 2.76282 2.48532 1.82692 2.48532C1.77564 2.48532 1.71795 2.48532 1.65385 2.48532C1.60256 2.48532 1.55769 2.48532 1.51923 2.48532C1.48077 2.48532 1.44231 2.48532 1.40385 2.48532C1.37821 2.48532 1.35897 2.48532 1.34615 2.48532C1.33333 2.47228 1.32051 2.46575 1.30769 2.46575C1.29487 2.46575 1.28205 2.46575 1.26923 2.46575C1.25641 2.46575 1.24359 2.46575 1.23077 2.46575C1.07692 2.46575 0.923077 2.49837 0.769231 2.5636C0.628205 2.61579 0.5 2.70059 0.384615 2.818C0.128205 3.06588 0 3.36595 0 3.7182V6.84932C0 8.42792 0.141026 9.88258 0.423077 11.2133C0.705128 12.544 1.05128 13.6464 1.46154 14.5205C1.88462 15.3816 2.38462 16.1644 2.96154 16.8689C3.53846 17.5603 4.07051 18.0887 4.55769 18.454C5.04487 18.8063 5.55128 19.1129 6.07692 19.3738C6.61538 19.6347 6.99359 19.7913 7.21154 19.8434C7.42949 19.9087 7.60897 19.9543 7.75 19.9804C7.78846 19.9935 7.82692 20 7.86538 20C7.90385 20 7.94231 20 7.98077 20C8.04487 20 8.11539 19.9935 8.19231 19.9804C8.28205 19.9674 8.39744 19.9413 8.53846 19.9022C8.67949 19.863 8.92949 19.7717 9.28846 19.6282C9.66026 19.4847 10.0192 19.3151 10.3654 19.1194C10.7115 18.9367 11.1154 18.6628 11.5769 18.2975C12.0385 17.9322 12.4615 17.5277 12.8462 17.0841C13.2436 16.6275 13.641 16.06 14.0385 15.3816C14.4359 14.7032 14.7756 13.9661 15.0577 13.1703C15.3397 12.3744 15.5641 11.4351 15.7308 10.3523C15.9103 9.25636 16 8.08871 16 6.84932V3.7182C16 3.3529 15.8718 3.04631 15.6154 2.79843ZM14.7692 6.84932C14.7692 11.5068 13.5385 14.9185 11.0769 17.0841C10.0385 17.9713 9.00641 18.5258 7.98077 18.7476C7.87821 18.7345 7.74359 18.7084 7.57692 18.6693C7.42308 18.6171 7.10897 18.4801 6.63462 18.2583C6.17308 18.0235 5.73077 17.7495 5.30769 17.4364C4.88462 17.1102 4.41026 16.6341 3.88462 16.0078C3.37179 15.3816 2.92949 14.6771 2.55769 13.8943C2.1859 13.0985 1.87179 12.0939 1.61538 10.8806C1.35897 9.65427 1.23077 8.3105 1.23077 6.84932V3.7182C1.24359 3.7182 1.25641 3.72472 1.26923 3.73777C1.29487 3.73777 1.32051 3.73777 1.34615 3.73777C1.37179 3.73777 1.40385 3.73777 1.44231 3.73777C1.48077 3.73777 1.51923 3.73777 1.55769 3.73777C1.59615 3.73777 1.63462 3.73777 1.67308 3.73777C1.72436 3.73777 1.77564 3.73777 1.82692 3.73777C2.85256 3.73777 3.78205 3.6334 4.61538 3.42466C5.11538 3.30724 5.64103 3.06588 6.19231 2.70059C6.75641 2.33529 7.19872 2.00261 7.51923 1.70254L7.98077 1.25245C8.10897 1.38291 8.28205 1.55251 8.5 1.76125C8.73077 1.95695 9.14744 2.25701 9.75 2.66145C10.3526 3.05284 10.9038 3.30724 11.4038 3.42466C12.2372 3.6334 13.1603 3.73777 14.1731 3.73777C14.2756 3.73777 14.3782 3.73777 14.4808 3.73777C14.5833 3.73777 14.6603 3.73125 14.7115 3.7182H14.7692C14.7692 3.99217 14.7692 5.03588 14.7692 6.84932Z" fill="#C78E66"/>
</svg>
