<svg width="18" height="18" viewBox="0 0 18 18" fill="none" xmlns="http://www.w3.org/2000/svg">
<path d="M1.40782 17.2961C1.40782 17.6983 1.10615 18 0.703911 18C0.301676 18 0 17.6983 0 17.2961C0 16.0391 0.502793 15.0838 1.2067 14.4302C2.21229 13.4749 3.56983 13.0726 4.42458 12.9721C4.57542 12.9721 4.72626 12.8715 4.82682 12.771C4.92737 12.7207 4.92737 12.6704 4.97765 12.5698C4.32402 12.0168 4.02235 11.3128 3.77095 10.6592C3.67039 10.3575 3.56983 10.1061 3.46927 10.0559L3.41899 10.0056C3.11732 9.70391 2.76536 9.2514 2.56425 8.69832C2.31285 8.14525 2.26257 7.49162 2.61453 6.93855C2.46369 6.43575 2.36313 5.8324 2.36313 5.27933C2.36313 3.62011 2.9162 1.81006 4.3743 0.854749C5.12849 0.251397 6.0838 0.0502793 7.13966 0C7.5419 0 8.09497 0 8.64805 0.100559C9.2514 0.201117 9.85475 0.452514 10.2067 0.955307C10.9106 0.854749 11.5642 1.25698 12.067 1.86034C12.6704 2.56425 13.0726 3.56983 13.1732 4.22346C13.2235 4.67598 13.2235 5.17877 13.1732 5.63129C13.1732 5.98324 13.0726 6.38548 12.9721 6.78771C13.1732 7.08939 13.2737 7.39106 13.2737 7.74302C13.2737 7.94413 13.2737 8.09497 13.2235 8.29609C15.8883 8.29609 18.0503 10.5084 18.0503 13.1229C18.0503 15.7877 15.8883 17.9497 13.2235 17.9497C10.5587 17.9497 8.39665 15.7877 8.39665 13.1229C8.39665 11.0112 9.75419 9.20112 11.6648 8.54749C11.9665 8.09497 12.1173 7.74302 11.8156 7.2905C11.514 7.13967 11.4637 6.93855 11.5642 6.68715C11.7151 6.23464 11.8156 5.8324 11.8659 5.43017C11.9162 5.02793 11.9162 4.72626 11.8659 4.3743C11.7654 3.97207 11.4637 3.26816 11.0112 2.76536C10.7598 2.51397 10.5084 2.31285 10.3073 2.31285C10.0559 2.36313 9.80447 2.31285 9.60335 2.21229C9.40224 2.11173 9.20112 1.96089 9.10056 1.75978C9 1.60894 8.69832 1.50838 8.39665 1.4581C7.99441 1.35754 7.5419 1.35754 7.18994 1.40782C6.38547 1.40782 5.63129 1.60894 5.12849 1.96089C4.6257 2.31285 4.27374 2.76536 4.02235 3.46927V3.51955C3.82123 4.02235 3.72067 4.6257 3.72067 5.22905C3.72067 5.78212 3.82123 6.28492 4.02235 6.68715C4.02235 6.78771 4.07263 6.93855 4.07263 7.08939C4.02235 7.59218 3.56983 7.5419 3.82123 8.19553C3.97207 8.54749 4.17318 8.79888 4.3743 9C4.72626 9.30168 4.8771 9.70391 5.02793 10.1564C5.22905 10.6592 5.48045 11.3128 5.93296 11.6145C6.18436 11.7151 6.3352 11.9665 6.3352 12.2179V12.4693C6.3352 12.9721 6.13408 13.4246 5.78212 13.7765C5.48045 14.0782 5.02793 14.3296 4.52514 14.3296C3.92179 14.3799 2.9162 14.7318 2.21229 15.4358C1.7095 15.838 1.40782 16.4916 1.40782 17.2961ZM14.9832 12.7207C15.2346 12.7207 15.3855 12.9218 15.3855 13.1229C15.3855 13.3743 15.1844 13.5251 14.9832 13.5251H13.5754V14.9832C13.5754 15.2346 13.3743 15.3855 13.1732 15.3855C12.9218 15.3855 12.771 15.1844 12.771 14.9832V13.5754H11.3128C11.0615 13.5754 10.9106 13.3743 10.9106 13.1732C10.9106 12.9218 11.1117 12.771 11.3128 12.771H12.771V11.3128C12.771 11.0615 12.9721 10.9106 13.1732 10.9106C13.4246 10.9106 13.5754 11.1117 13.5754 11.3128V12.771H14.9832V12.7207ZM13.1732 9.70391C11.2626 9.70391 9.70391 11.2626 9.70391 13.1732C9.70391 15.0838 11.2626 16.6425 13.1732 16.6425C15.0838 16.6425 16.6425 15.0838 16.6425 13.1732C16.6425 11.2626 15.0838 9.70391 13.1732 9.70391Z" fill="#C78E66"/>
</svg>
