<svg xmlns="http://www.w3.org/2000/svg" xmlns:xlink="http://www.w3.org/1999/xlink"><symbol id="account" viewBox="0 0 18 18">
<path d="M9.0088 1.1261C9.46628 1.1261 9.93548 1.21994 10.4164 1.40762C10.9091 1.58358 11.3372 1.81232 11.7009 2.09384C12.0645 2.36364 12.3636 2.66862 12.5982 3.0088C12.8328 3.33724 12.9501 3.64809 12.9501 3.94135V6.7566C12.9501 7.42522 12.8094 8.17009 12.5279 8.9912C12.2463 9.81232 11.8299 10.434 11.2786 10.8563C11.1848 10.9384 11.1026 11.0381 11.0323 11.1554C10.9619 11.261 10.9091 11.3783 10.8739 11.5073C10.8504 11.6246 10.8446 11.7478 10.8563 11.8768C10.915 12.2991 11.132 12.5982 11.5073 12.7742L16.4164 15.0968C16.4164 15.0968 16.4282 15.1026 16.4516 15.1144C16.4751 15.1144 16.4985 15.1202 16.522 15.132C16.5455 15.1437 16.5748 15.1613 16.61 15.1848C16.6452 15.2082 16.6745 15.2375 16.6979 15.2727C16.7331 15.2962 16.7625 15.3314 16.7859 15.3783C16.8211 15.4252 16.8446 15.4839 16.8563 15.5543C16.868 15.6246 16.8739 15.7009 16.8739 15.783V16.8739L1.1261 16.8915V15.7478C1.1261 15.4545 1.28446 15.2375 1.60117 15.0968L6.54545 12.7566C6.92082 12.5806 7.13196 12.2874 7.17889 11.8768C7.23754 11.4545 7.10264 11.1144 6.77419 10.8563C6.2346 10.4223 5.81232 9.79472 5.50733 8.97361C5.21408 8.14076 5.06745 7.40176 5.06745 6.7566V3.94135C5.06745 3.55425 5.261 3.1437 5.64809 2.70968C6.03519 2.26393 6.53959 1.88856 7.16129 1.58358C7.78299 1.27859 8.39883 1.1261 9.0088 1.1261ZM9.0088 0C8.19941 0 7.39589 0.199413 6.59824 0.59824C5.81232 0.985337 5.17302 1.48974 4.68035 2.11144C4.18768 2.72141 3.94135 3.33138 3.94135 3.94135V6.7566C3.94135 7.51906 4.1173 8.39883 4.46921 9.39589C4.83284 10.3812 5.36657 11.1613 6.07038 11.7361L1.1261 14.0762C1.09091 14.088 1.04985 14.1056 1.00293 14.129C0.956012 14.1525 0.868035 14.2053 0.739003 14.2874C0.609971 14.3695 0.492669 14.4516 0.387097 14.5337C0.293255 14.6158 0.205279 14.7214 0.123167 14.8504C0.0410557 14.9677 0 15.0792 0 15.1848V16.8915C0 17.1965 0.105572 17.4545 0.316716 17.6657C0.539589 17.8886 0.809384 18 1.1261 18H16.8915C17.1965 18 17.4545 17.8886 17.6657 17.6657C17.8886 17.4545 18 17.1965 18 16.8915V15.1848C18 15.0674 17.9589 14.9501 17.8768 14.8328C17.8065 14.7038 17.7126 14.5982 17.5953 14.5161C17.4897 14.4223 17.3842 14.3402 17.2786 14.2698C17.173 14.1994 17.0792 14.1466 16.9971 14.1114L16.8915 14.0762L11.9824 11.7361C12.6862 11.1848 13.2082 10.4223 13.5484 9.44868C13.9003 8.47507 14.0762 7.57771 14.0762 6.7566V3.94135C14.0762 3.48387 13.9238 3.02053 13.6188 2.55132C13.3255 2.07038 12.9443 1.64223 12.4751 1.26686C12.0059 0.891496 11.4604 0.58651 10.8387 0.351906C10.217 0.117302 9.60704 0 9.0088 0Z" fill="white"/>
</symbol><symbol id="fb" viewBox="0 0 12 24">
<path fill-rule="evenodd" clip-rule="evenodd" d="M11.5222 8.19091L11.2539 11.5562H7.67813V23.25H3.16058V11.5562H0.75V8.19091H3.16058V7.13575V6.10131V5.92891C3.16058 4.93345 3.18709 3.3952 3.93696 2.443C4.72724 1.43475 5.81228 0.75 7.67813 0.75C10.7187 0.75 12 1.16792 12 1.16792L11.3972 4.61484C11.3972 4.61484 10.3923 4.3346 9.45561 4.3346C8.51763 4.3346 7.67813 4.65748 7.67813 5.56277V5.92891V7.13575V8.19091H11.5222Z" fill="white"/>
</symbol><symbol id="fuel" viewBox="0 0 14 20">
<path d="M6.96023 20C5.70076 20 4.53409 19.6934 3.46023 19.0802C2.39962 18.4801 1.55777 17.6647 0.934659 16.6341C0.311553 15.5903 0 14.4553 0 13.229C0 10.9589 1.55114 7.49511 4.65341 2.83757C5.31629 1.83301 5.91951 0.97195 6.46307 0.254403C6.58239 0.084801 6.74811 0 6.96023 0C7.17235 0 7.3447 0.084801 7.47727 0.254403C7.57008 0.37182 7.68939 0.534899 7.83523 0.74364C7.98106 0.939335 8.23295 1.28506 8.59091 1.78082C8.96212 2.27658 9.32008 2.79191 9.66477 3.32681C10.0095 3.86171 10.3939 4.47489 10.8182 5.16634C11.2557 5.8578 11.6534 6.54925 12.0114 7.2407C12.3693 7.93216 12.7008 8.63014 13.0057 9.33464C13.3239 10.0261 13.5691 10.711 13.7415 11.3894C13.9138 12.0678 14 12.681 14 13.229C14 13.9596 13.8807 14.6706 13.642 15.362C13.4034 16.0535 13.0653 16.6797 12.6278 17.2407C12.2036 17.7887 11.6998 18.2714 11.1165 18.6888C10.5464 19.1063 9.90341 19.426 9.1875 19.6477C8.47159 19.8826 7.72917 20 6.96023 20ZM6.98011 1.70254C6.46307 2.42009 5.94602 3.17678 5.42898 3.9726C4.91193 4.76843 4.30208 5.75995 3.59943 6.94716C2.91004 8.12133 2.34659 9.27593 1.90909 10.411C1.48485 11.5329 1.27273 12.4723 1.27273 13.229C1.27273 14.7423 1.82955 16.0404 2.94318 17.1233C4.05682 18.2061 5.39583 18.7476 6.96023 18.7476C8.55114 18.7476 9.91004 18.2061 11.0369 17.1233C12.1638 16.0404 12.7273 14.7423 12.7273 13.229C12.7273 12.6941 12.6212 12.0744 12.4091 11.3699C12.2102 10.6523 11.9252 9.92172 11.554 9.17808C11.196 8.4214 10.8182 7.6908 10.4205 6.9863C10.0227 6.26875 9.58523 5.55121 9.10795 4.83366C8.64394 4.10307 8.24621 3.50946 7.91477 3.05284C7.59659 2.58317 7.28504 2.13307 6.98011 1.70254Z" fill="#C78E66"/>
</symbol><symbol id="instagram" viewBox="0 0 20 20">
<path fill-rule="evenodd" clip-rule="evenodd" d="M16.8597 17.7222C12.3306 17.7012 7.80077 17.7152 3.27168 17.7129C2.35324 17.7121 2.19355 17.55 2.18965 16.5859C2.17953 14.1357 2.20601 11.6847 2.16628 9.2352C2.15382 8.4691 2.40699 8.17607 3.16418 8.29375C3.4454 8.3374 3.73752 8.30077 4.14961 8.30077C3.67286 10.9786 4.3132 13.2449 6.51854 14.8846C7.72209 15.7785 9.11806 16.1854 10.6067 16.0092C13.8427 15.6274 16.6876 13.001 15.9499 8.34051H17.814C17.8311 8.60783 17.8607 8.86033 17.8607 9.11206C17.8646 11.641 17.8452 14.1708 17.874 16.6997C17.8826 17.4495 17.6146 17.7253 16.8597 17.7222ZM10.0926 6.0851C12.2613 6.09367 13.926 7.81134 13.9214 10.0364C13.9167 12.1834 12.132 13.9409 9.98664 13.9128C7.91684 13.8847 6.11736 12.0829 6.09165 10.0122C6.06595 7.87603 7.89893 6.07653 10.0926 6.0851ZM15.7699 2.12605C15.7964 2.12605 15.8221 2.12683 15.8486 2.12605C17.9511 2.10111 17.8678 2.06058 17.8467 4.15857C17.8467 6.11783 17.8467 6.11783 15.8548 6.11861C13.8419 6.11861 13.8419 6.11861 13.8419 4.07674C13.8419 2.12839 13.8419 2.12838 15.7699 2.12605ZM17.6605 0.00312166C15.16 -0.00155438 12.6594 0.00234232 10.1588 0.00156298C7.63251 0.00078364 5.10544 0.00312166 2.57837 4.29842e-06C1.00869 -0.00233372 0.0131345 0.949242 0.00846054 2.5391C-0.00478241 7.48947 -0.000887427 12.4406 0.00923954 17.391C0.0107975 18.3761 0.367578 19.2341 1.29848 19.6565C1.80405 19.8857 2.41167 19.9714 2.97488 19.9769C6.29107 20.0049 9.60727 19.9893 12.9242 19.9901C14.3451 19.9909 15.7668 20.0104 17.1877 19.9924C18.949 19.9698 19.9897 19.0798 19.9921 17.5874C20.0022 12.5053 20.0022 7.42245 19.9944 2.34037C19.9929 0.978077 19.0098 0.00623903 17.6605 0.00312166Z" fill="white"/>
</symbol><symbol id="pointer" viewBox="0 0 14 18">
<path d="M7.32031 0C6.40625 0 5.52734 0.1875 4.68359 0.5625C3.85156 0.925781 3.13086 1.41797 2.52148 2.03906C1.91211 2.64844 1.41992 3.375 1.04492 4.21875C0.681641 5.0625 0.5 5.94141 0.5 6.85547C0.5 7.37109 0.570312 7.91016 0.710938 8.47266C0.851562 9.03516 1.01562 9.55664 1.20312 10.0371C1.39062 10.5176 1.66016 11.0508 2.01172 11.6367C2.36328 12.2227 2.67383 12.7207 2.94336 13.1309C3.22461 13.5293 3.59961 14.0215 4.06836 14.6074C4.53711 15.1816 4.90039 15.6211 5.1582 15.9258C5.41602 16.2305 5.7793 16.6523 6.24805 17.1914C6.38867 17.3555 6.49414 17.4727 6.56445 17.543C6.58789 17.5781 6.62891 17.6191 6.6875 17.666C6.74609 17.7246 6.85156 17.7949 7.00391 17.877C7.15625 17.959 7.30273 18 7.44336 18H7.49609C7.82422 18 8.11719 17.8477 8.375 17.543C12.125 13.2305 14 9.66797 14 6.85547C14 4.89844 13.4023 3.27539 12.207 1.98633C10.9648 0.662109 9.33594 0 7.32031 0ZM7.53125 16.7871C7.51953 16.8105 7.49609 16.834 7.46094 16.8574C7.4375 16.834 7.41406 16.8105 7.39062 16.7871L7.0918 16.4531C6.64648 15.9375 6.30078 15.5391 6.05469 15.2578C5.80859 14.9648 5.46289 14.543 5.01758 13.9922C4.57227 13.4414 4.2207 12.9785 3.96289 12.6035C3.70508 12.2168 3.40625 11.7539 3.06641 11.2148C2.72656 10.6641 2.46289 10.1719 2.27539 9.73828C2.09961 9.29297 1.94727 8.81836 1.81836 8.31445C1.68945 7.79883 1.625 7.3125 1.625 6.85547C1.625 5.83594 1.88281 4.88672 2.39844 4.00781C2.91406 3.11719 3.60547 2.41406 4.47266 1.89844C5.35156 1.38281 6.30078 1.125 7.32031 1.125C8.24609 1.125 9.07227 1.28906 9.79883 1.61719C10.5254 1.93359 11.1055 2.36719 11.5391 2.91797C11.9844 3.46875 12.3184 4.07812 12.541 4.74609C12.7637 5.41406 12.875 6.11719 12.875 6.85547C12.875 9.38672 11.0938 12.6973 7.53125 16.7871ZM7.26758 3.39258C6.9043 3.39258 6.54688 3.45117 6.19531 3.56836C5.85547 3.68555 5.54492 3.84961 5.26367 4.06055C4.99414 4.25977 4.75391 4.5 4.54297 4.78125C4.33203 5.0625 4.16797 5.37305 4.05078 5.71289C3.94531 6.05273 3.89258 6.4043 3.89258 6.76758C3.89258 7.70508 4.2207 8.50195 4.87695 9.1582C5.54492 9.81445 6.3418 10.1426 7.26758 10.1426C8.20508 10.1426 9.00195 9.81445 9.6582 9.1582C10.3145 8.50195 10.6426 7.70508 10.6426 6.76758C10.6426 6.31055 10.5547 5.87695 10.3789 5.4668C10.2031 5.04492 9.96289 4.6875 9.6582 4.39453C9.35352 4.08984 8.99023 3.84961 8.56836 3.67383C8.1582 3.48633 7.72461 3.39258 7.26758 3.39258ZM7.26758 9.01758C6.64648 9.01758 6.11328 8.79492 5.66797 8.34961C5.22266 7.9043 5 7.37109 5 6.75C5 6.12891 5.2168 5.60156 5.65039 5.16797C6.0957 4.72266 6.62891 4.5 7.25 4.5C7.87109 4.5 8.39844 4.72266 8.83203 5.16797C9.27734 5.60156 9.5 6.12891 9.5 6.75C9.5 7.52344 9.18945 8.13867 8.56836 8.5957C8.18164 8.87695 7.74805 9.01758 7.26758 9.01758Z" fill="white"/>
</symbol><symbol id="power" viewBox="0 0 14 20">
<path d="M8.59661 1.25245L7.2116 8.66928L12.2515 8.68885L5.40339 18.7476L6.7884 10.5871L1.74848 10.5675L8.59661 1.25245ZM8.59661 0C8.58379 0 8.57097 0 8.55814 0C8.54532 0 8.52608 0 8.50043 0C8.39784 0.0130463 8.30807 0.0391389 8.23112 0.0782779C8.15418 0.104371 8.06441 0.150033 7.96182 0.215264C7.87205 0.280496 7.78869 0.358774 7.71174 0.450098C7.69892 0.463144 7.6861 0.47619 7.67327 0.489237C7.67327 0.502283 7.66686 0.515329 7.65403 0.528376L0.748195 9.80431C0.453239 10.2218 0.421178 10.6588 0.652014 11.1155C0.690487 11.1937 0.735371 11.272 0.786668 11.3503C0.850789 11.4155 0.91491 11.4808 0.979031 11.546C1.05598 11.5982 1.13292 11.6438 1.20987 11.683C1.29964 11.7221 1.38941 11.7547 1.47918 11.7808C1.56895 11.7939 1.65871 11.8004 1.74848 11.8004L5.3072 11.82L4.17226 18.5323C4.12096 18.8193 4.16585 19.0868 4.30691 19.3346C4.44798 19.5956 4.64676 19.7847 4.90324 19.9022C4.98019 19.9413 5.05713 19.9674 5.13408 19.9804C5.22385 19.9935 5.31362 20 5.40339 20C5.77529 20 6.08948 19.8304 6.34596 19.4912L13.2518 9.43249C13.5468 9.015 13.5788 8.57795 13.348 8.12133C13.1172 7.66471 12.7517 7.4364 12.2515 7.4364H8.6928L9.8085 1.54599C9.82133 1.4938 9.82774 1.44814 9.82774 1.409C9.84056 1.35682 9.84698 1.30463 9.84698 1.25245C9.84698 1.13503 9.82774 1.02414 9.78927 0.919765C9.76362 0.815395 9.72515 0.717547 9.67385 0.626223C9.62255 0.534899 9.55843 0.450098 9.48149 0.37182C9.41736 0.293542 9.34042 0.22831 9.25065 0.176125C9.16088 0.12394 9.0647 0.084801 8.9621 0.0587084C8.85951 0.0195695 8.75692 0 8.65432 0C8.6415 0 8.62868 0 8.61585 0C8.61585 0 8.60944 0 8.59661 0Z" fill="#C78E66"/>
</symbol><symbol id="speedometer" viewBox="0 0 20 19">
<path d="M13.8748 0.818277C12.6484 0.272759 11.3568 0 10 0C8.64318 0 7.34508 0.272759 6.10568 0.818277C4.87932 1.35049 3.81605 2.07563 2.91585 2.9937C2.0287 3.89846 1.31768 4.98284 0.782779 6.24685C0.260926 7.51085 0 8.83473 0 10.2185C0 11.9748 0.410959 13.618 1.23288 15.1481C2.06784 16.6782 3.22244 17.9156 4.69667 18.8603C4.84018 18.9534 4.99674 18.98 5.16634 18.9401C5.33594 18.9002 5.46641 18.8071 5.55773 18.6607C5.64905 18.5144 5.67515 18.3547 5.63601 18.1817C5.59687 18.0088 5.50554 17.8757 5.36204 17.7826C4.30528 17.104 3.43118 16.2458 2.73973 15.208L3.40509 14.8088C3.5486 14.729 3.63992 14.6026 3.67906 14.4296C3.73125 14.2567 3.71168 14.097 3.62035 13.9506C3.54207 13.791 3.41813 13.6912 3.24853 13.6513C3.07893 13.598 2.92237 13.618 2.77886 13.7111L2.1135 14.0903C1.87867 13.5847 1.6895 13.0592 1.54599 12.5137C1.40248 11.9681 1.31115 11.4093 1.27202 10.8372H1.95695C2.1396 10.8372 2.28963 10.7773 2.40704 10.6576C2.52446 10.5245 2.58317 10.3715 2.58317 10.1985C2.58317 10.0256 2.52446 9.8792 2.40704 9.75945C2.28963 9.6264 2.1396 9.55987 1.95695 9.55987H1.27202C1.35029 8.40231 1.64384 7.30462 2.15264 6.26681L2.77886 6.64601C2.87019 6.69923 2.97456 6.72584 3.09198 6.72584C3.32681 6.72584 3.50294 6.6194 3.62035 6.40651C3.71168 6.26015 3.73125 6.10049 3.67906 5.92752C3.63992 5.75455 3.5486 5.62815 3.40509 5.54832L2.77886 5.16912C3.41813 4.22444 4.20091 3.43277 5.1272 2.79412L5.47945 3.41282C5.59687 3.6257 5.77952 3.73214 6.0274 3.73214C6.13177 3.73214 6.23614 3.70553 6.34051 3.65231C6.40574 3.6124 6.46445 3.55917 6.51663 3.49265C6.56882 3.41282 6.60144 3.33964 6.61448 3.27311C6.64057 3.19328 6.6471 3.11345 6.63405 3.03361C6.63405 2.94048 6.60796 2.85399 6.55577 2.77416L6.20352 2.15546C6.69928 1.91597 7.20809 1.72969 7.72994 1.59664C8.26484 1.45028 8.80626 1.35049 9.35421 1.29727V2.09559C9.35421 2.28186 9.41292 2.43487 9.53033 2.55462C9.6608 2.67437 9.81083 2.73424 9.98043 2.73424C10.1631 2.73424 10.3131 2.67437 10.4305 2.55462C10.5479 2.43487 10.6067 2.28186 10.6067 2.09559V1.29727C11.7417 1.3771 12.818 1.66982 13.8356 2.17542L13.4834 2.77416C13.4703 2.81408 13.4573 2.85399 13.4442 2.89391C13.4312 2.92052 13.4181 2.95378 13.4051 2.9937C13.4051 3.03361 13.4051 3.07353 13.4051 3.11345C13.4051 3.14006 13.4051 3.17332 13.4051 3.21324C13.4181 3.25315 13.4312 3.29307 13.4442 3.33298C13.4573 3.35959 13.4703 3.39286 13.4834 3.43277C13.5095 3.45938 13.529 3.48599 13.5421 3.51261C13.5682 3.53922 13.5943 3.56583 13.6204 3.59244C13.6464 3.61905 13.6791 3.63901 13.7182 3.65231C13.7443 3.66562 13.7704 3.67892 13.7965 3.69223C13.8226 3.70553 13.8487 3.71884 13.8748 3.73214C13.9008 3.73214 13.9269 3.73214 13.953 3.73214C13.9791 3.73214 14.0052 3.73214 14.0313 3.73214C14.0835 3.73214 14.1357 3.72549 14.1879 3.71219C14.2401 3.69888 14.2857 3.67892 14.3249 3.65231C14.377 3.6257 14.4227 3.59244 14.4618 3.55252C14.514 3.51261 14.5532 3.46604 14.5793 3.41282L14.9119 2.81408C15.8382 3.46604 16.6145 4.2577 17.2407 5.18908L16.6536 5.54832C16.5753 5.58824 16.5101 5.64146 16.4579 5.70798C16.4188 5.77451 16.3862 5.84769 16.3601 5.92752C16.334 6.00735 16.3275 6.09384 16.3405 6.18698C16.3536 6.26681 16.3796 6.33999 16.4188 6.40651C16.484 6.51296 16.5623 6.59279 16.6536 6.64601C16.758 6.69923 16.8624 6.72584 16.9667 6.72584C17.0189 6.72584 17.0711 6.71919 17.1233 6.70588C17.1755 6.69258 17.2277 6.67262 17.2798 6.64601L17.8669 6.30672C18.3627 7.33123 18.6497 8.42227 18.728 9.57983H18.0431C17.8735 9.57983 17.7234 9.64636 17.593 9.77941C17.4755 9.89916 17.4168 10.0455 17.4168 10.2185C17.4168 10.3915 17.4755 10.5445 17.593 10.6775C17.7234 10.7973 17.8735 10.8571 18.0431 10.8571H18.728C18.6497 11.9881 18.3757 13.0592 17.9061 14.0704L17.2798 13.7111C17.1233 13.618 16.9602 13.598 16.7906 13.6513C16.6341 13.6912 16.5101 13.791 16.4188 13.9506C16.3796 14.0172 16.3536 14.097 16.3405 14.1901C16.3275 14.27 16.334 14.3498 16.3601 14.4296C16.3862 14.5095 16.4188 14.5826 16.4579 14.6492C16.5101 14.7157 16.5753 14.7689 16.6536 14.8088L17.2798 15.188C16.5753 16.2525 15.6751 17.1306 14.5793 17.8225C14.4357 17.9156 14.3444 18.0487 14.3053 18.2216C14.2661 18.3813 14.2922 18.541 14.3836 18.7006C14.4227 18.7539 14.4684 18.8004 14.5205 18.8403C14.5858 18.8936 14.651 18.9335 14.7162 18.9601C14.7815 18.9867 14.8467 19 14.9119 19C15.0294 19 15.1402 18.9667 15.2446 18.9002C16.7319 17.9688 17.893 16.7381 18.728 15.208C19.576 13.6646 20 11.9947 20 10.1985C20 8.82808 19.7325 7.51085 19.1977 6.24685C18.6758 4.98284 17.9648 3.89846 17.0646 2.9937C16.1774 2.07563 15.1142 1.35049 13.8748 0.818277ZM14.6184 8.22269C14.7228 8.15616 14.801 8.07633 14.8532 7.98319C14.9054 7.87675 14.9315 7.77031 14.9315 7.66387C14.9315 7.55742 14.9054 7.45098 14.8532 7.34454C14.7619 7.19818 14.6314 7.10504 14.4618 7.06513C14.3053 7.01191 14.1487 7.02521 13.9922 7.10504L10.5871 9.1208C10.3914 9.00105 10.1892 8.94118 9.98043 8.94118C9.64123 8.94118 9.34768 9.06758 9.0998 9.32038C8.85192 9.57318 8.72798 9.87255 8.72798 10.2185C8.72798 10.4447 8.78017 10.6576 8.88454 10.8571C9.00196 11.0567 9.15851 11.2164 9.35421 11.3361C9.5499 11.4426 9.75864 11.4958 9.98043 11.4958C10.3196 11.4958 10.6132 11.3694 10.8611 11.1166C11.1089 10.8638 11.2329 10.5644 11.2329 10.2185L14.6184 8.22269Z" fill="#C78E66"/>
</symbol><symbol id="vk" viewBox="0 0 18 10">
<path fill-rule="evenodd" clip-rule="evenodd" d="M17.5446 10H15.2358C14.4819 10 14.3872 9.47857 13.0051 8.22674C11.8395 7.13543 11.3405 7.04911 11.058 7.04911C10.8064 7.04911 10.6335 7.22831 10.6335 7.64525V9.31452C10.6335 9.80667 10.335 10 9.11039 10C7.09945 10 4.86934 8.82288 3.17281 6.64681C0.644244 3.41275 0 0.998435 0 0.477008C0 0.193832 0.220245 0 0.518694 0H2.57591C3.11003 0 3.31432 0.149412 3.50265 0.685478C4.44481 3.30877 6.12591 5.6186 6.83239 5.6186C7.09945 5.6186 7.13084 5.41013 7.13084 4.87355V2.20585C7.13084 0.913129 6.36158 0.805108 6.36158 0.328101C6.36158 0.138812 6.51852 0 6.76962 0H10.068C10.5079 0 10.5707 0.149412 10.5707 0.655696V4.27742C10.5707 4.69032 10.6601 4.84377 10.8532 4.84377C11.0937 4.84377 11.3144 4.70597 11.7485 4.24764C13.1025 2.83025 14.2149 0.581495 14.2149 0.581495C14.3558 0.298319 14.5293 0.104487 15.0001 0.104487H17.0573C17.4664 0.104487 17.6388 0.313462 17.5606 0.685478C17.3244 1.72884 14.9527 4.90334 14.9527 4.90334C14.733 5.23093 14.6389 5.41013 14.9527 5.72308C15.173 5.99112 15.864 6.57211 16.288 7.10868C17.3244 8.15204 18 9.03135 18 9.5235C18 9.89551 17.7803 10 17.5446 10Z" fill="white"/>
</symbol><symbol id="wheel" viewBox="0 0 20 20">
<path d="M18.75 8.10547L17.1484 7.75391C17.0312 7.3763 16.875 6.99219 16.6797 6.60156L17.5391 5.15625C17.6562 4.97396 17.7409 4.78516 17.793 4.58984C17.8581 4.38151 17.8711 4.16667 17.832 3.94531C17.793 3.72396 17.6953 3.53516 17.5391 3.37891L16.6602 2.5C16.543 2.38281 16.3997 2.29818 16.2305 2.24609C16.0742 2.18099 15.9115 2.15495 15.7422 2.16797C15.5859 2.16797 15.4297 2.19401 15.2734 2.24609C15.1172 2.29818 14.974 2.36328 14.8438 2.44141L13.4375 3.33984C13.3854 3.3138 13.3333 3.28776 13.2812 3.26172C13.2292 3.23568 13.1771 3.20964 13.125 3.18359C13.0729 3.15755 13.0208 3.13802 12.9688 3.125C12.9167 3.09896 12.8581 3.07292 12.793 3.04688C12.7409 3.02083 12.6888 3.0013 12.6367 2.98828C12.5846 2.96224 12.526 2.94271 12.4609 2.92969C12.4089 2.90365 12.3568 2.88411 12.3047 2.87109L11.9531 1.23047C11.888 0.917969 11.7318 0.638021 11.4844 0.390625C11.237 0.130208 10.9505 0 10.625 0H9.375C9.04948 0 8.77604 0.123698 8.55469 0.371094C8.34635 0.61849 8.20312 0.911458 8.125 1.25L7.71484 2.85156C7.50651 2.91667 7.29818 2.99479 7.08984 3.08594C6.89453 3.16406 6.69922 3.25521 6.50391 3.35938L5.05859 2.44141C4.88932 2.32422 4.69401 2.24609 4.47266 2.20703C4.26432 2.15495 4.04948 2.15495 3.82812 2.20703C3.60677 2.24609 3.41797 2.34375 3.26172 2.5L2.36328 3.37891C2.14193 3.66536 2.03776 3.95833 2.05078 4.25781C2.07682 4.55729 2.18099 4.85677 2.36328 5.15625L3.28125 6.67969C3.09896 7.05729 2.95573 7.41536 2.85156 7.75391L1.25 8.10547C0.924479 8.17057 0.63151 8.32682 0.371094 8.57422C0.123698 8.80859 0 9.09505 0 9.43359V10.6836C0 10.9961 0.123698 11.263 0.371094 11.4844C0.61849 11.7057 0.911458 11.8555 1.25 11.9336L2.87109 12.3242C2.97526 12.6497 3.11198 12.9818 3.28125 13.3203L2.36328 14.8438C2.18099 15.1432 2.07682 15.4427 2.05078 15.7422C2.03776 16.0417 2.14193 16.3346 2.36328 16.6211L3.26172 17.5C3.52214 17.7344 3.82161 17.8516 4.16016 17.8516C4.4987 17.8385 4.79818 17.7409 5.05859 17.5586L6.50391 16.6406C6.58203 16.6797 6.66016 16.7188 6.73828 16.7578C6.81641 16.7969 6.89453 16.8359 6.97266 16.875C7.0638 16.901 7.14844 16.9336 7.22656 16.9727C7.31771 16.9987 7.40234 17.0312 7.48047 17.0703C7.57161 17.0964 7.65625 17.1224 7.73438 17.1484L8.125 18.75C8.20312 19.0885 8.35286 19.3815 8.57422 19.6289C8.79557 19.8763 9.0625 20 9.375 20H10.625C10.8464 20 11.0547 19.9349 11.25 19.8047C11.4453 19.6875 11.6016 19.5312 11.7188 19.3359C11.8359 19.1536 11.9141 18.9583 11.9531 18.75L12.3047 17.1289C12.6953 17.0117 13.0729 16.8555 13.4375 16.6602L14.8438 17.5586C15.1172 17.7409 15.4232 17.8385 15.7617 17.8516C16.1003 17.8516 16.3997 17.7344 16.6602 17.5L17.5391 16.6211C17.7604 16.3346 17.8581 16.0417 17.832 15.7422C17.819 15.4427 17.7214 15.1432 17.5391 14.8438L16.6797 13.3984C16.862 13.0469 17.0117 12.6888 17.1289 12.3242L18.75 11.9336C19.0885 11.8555 19.3815 11.7057 19.6289 11.4844C19.8763 11.263 20 10.9961 20 10.6836V9.43359C20 8.92578 19.7331 8.53516 19.1992 8.26172C19.056 8.18359 18.9062 8.13151 18.75 8.10547ZM18.75 10.5859C18.737 10.599 18.7174 10.612 18.6914 10.625C18.6654 10.638 18.6328 10.651 18.5938 10.6641C18.5547 10.6771 18.5156 10.6901 18.4766 10.7031L16.1523 11.2891L15.9375 11.9336C15.8854 12.0898 15.8268 12.2461 15.7617 12.4023C15.7096 12.5456 15.6445 12.6888 15.5664 12.832L15.2539 13.457L16.4844 15.4883C16.5495 15.6055 16.5885 15.7096 16.6016 15.8008L15.7812 16.6211C15.7292 16.6081 15.6836 16.5951 15.6445 16.582C15.6055 16.556 15.5794 16.5365 15.5664 16.5234L13.5156 15.2148L12.8711 15.5469C12.7669 15.599 12.6628 15.651 12.5586 15.7031C12.4544 15.7422 12.3503 15.7878 12.2461 15.8398C12.1419 15.8789 12.0378 15.9115 11.9336 15.9375L11.25 16.1719L10.7422 18.4961C10.7292 18.5482 10.7096 18.6003 10.6836 18.6523C10.6576 18.6914 10.6315 18.724 10.6055 18.75H9.47266C9.42057 18.6719 9.38151 18.5807 9.35547 18.4766L8.76953 16.1719L8.10547 15.957C8.06641 15.944 8.02734 15.931 7.98828 15.918C7.96224 15.9049 7.92969 15.8919 7.89062 15.8789C7.85156 15.8659 7.8125 15.8529 7.77344 15.8398C7.73438 15.8268 7.69531 15.8138 7.65625 15.8008C7.61719 15.7747 7.57812 15.7552 7.53906 15.7422C7.5 15.7292 7.46094 15.7161 7.42188 15.7031C7.38281 15.6771 7.34375 15.6576 7.30469 15.6445C7.27865 15.6315 7.24609 15.6185 7.20703 15.6055C7.16797 15.5794 7.12891 15.5534 7.08984 15.5273L6.44531 15.1953L4.39453 16.5039C4.30339 16.569 4.21875 16.6016 4.14062 16.6016L3.32031 15.8008C3.33333 15.7096 3.3724 15.612 3.4375 15.5078L4.70703 13.3789L4.41406 12.7734C4.27083 12.487 4.15365 12.2135 4.0625 11.9531L3.84766 11.2891L1.5625 10.7031C1.43229 10.6771 1.32812 10.638 1.25 10.5859V9.43359C1.26302 9.43359 1.27604 9.42708 1.28906 9.41406C1.3151 9.40104 1.34115 9.38802 1.36719 9.375C1.40625 9.34896 1.4388 9.33594 1.46484 9.33594L3.82812 8.80859L4.04297 8.125C4.12109 7.85156 4.23828 7.55208 4.39453 7.22656L4.70703 6.62109L3.4375 4.51172C3.41146 4.45964 3.38542 4.40755 3.35938 4.35547C3.33333 4.29036 3.32031 4.23828 3.32031 4.19922L4.14062 3.37891L4.35547 3.47656L6.44531 4.80469L7.08984 4.47266C7.41536 4.30339 7.75391 4.16016 8.10547 4.04297L8.76953 3.82812L9.33594 1.5625C9.36198 1.43229 9.40755 1.32812 9.47266 1.25H10.625C10.625 1.25 10.6315 1.26953 10.6445 1.30859C10.6576 1.32161 10.6641 1.33464 10.6641 1.34766C10.6771 1.36068 10.6836 1.38021 10.6836 1.40625C10.6966 1.43229 10.7096 1.45182 10.7227 1.46484L11.2305 3.82812L11.9141 4.0625C12.2396 4.16667 12.5586 4.29688 12.8711 4.45312L13.5156 4.78516L15.5273 3.49609C15.6185 3.44401 15.7031 3.41797 15.7812 3.41797L16.6016 4.21875C16.5885 4.24479 16.5755 4.28385 16.5625 4.33594C16.5495 4.38802 16.5234 4.4401 16.4844 4.49219L15.2539 6.54297L15.5664 7.16797C15.6576 7.33724 15.7357 7.5 15.8008 7.65625C15.8659 7.8125 15.918 7.96875 15.957 8.125L16.1719 8.80859L18.4961 9.33594C18.6393 9.36198 18.7305 9.40755 18.7695 9.47266L18.75 10.5859ZM12.6562 7.34375C11.9271 6.61458 11.0417 6.25 10 6.25C8.97135 6.25 8.08594 6.61458 7.34375 7.34375C6.61458 8.07292 6.25 8.95833 6.25 10C6.25 11.0417 6.61458 11.9271 7.34375 12.6562C8.08594 13.3854 8.97135 13.75 10 13.75C10.5208 13.75 11.0091 13.6523 11.4648 13.457C11.9336 13.2617 12.3372 12.9948 12.6758 12.6562C13.0143 12.3177 13.2812 11.9206 13.4766 11.4648C13.6719 10.9961 13.7695 10.5078 13.7695 10C13.7695 8.95833 13.3984 8.07292 12.6562 7.34375ZM11.7578 11.7773C11.276 12.2591 10.6901 12.5 10 12.5C9.3099 12.5 8.71745 12.2591 8.22266 11.7773C7.74089 11.2826 7.5 10.6901 7.5 10C7.5 9.3099 7.74089 8.72396 8.22266 8.24219C8.71745 7.7474 9.3099 7.5 10 7.5C10.6901 7.5 11.276 7.7474 11.7578 8.24219C12.2526 8.72396 12.5 9.3099 12.5 10C12.5 10.6901 12.2526 11.2826 11.7578 11.7773Z" fill="#C78E66"/>
</symbol><symbol id="youtube" viewBox="0 0 24 16">
<path fill-rule="evenodd" clip-rule="evenodd" d="M9.95459 10.9371V5.06311C11.9602 6.04827 13.9055 7.00308 15.9344 7.99861C13.9179 8.98969 11.9777 9.94302 9.95459 10.9371ZM23.1335 4.16381C23.0964 3.27858 22.8541 2.40962 22.2118 1.69611C21.4217 0.819011 20.3203 0.741294 19.235 0.701325C16.8219 0.613245 14.4067 0.574016 11.4343 0.5C9.26931 0.581418 6.54711 0.662836 3.82928 0.793105C2.60349 0.852318 1.68178 1.43409 1.27222 2.55174C1.05761 3.14017 0.907025 3.77449 0.879381 4.394C0.792812 6.33916 0.731704 8.28727 0.754983 10.2332C0.765895 11.1798 0.923757 12.1369 1.12672 13.0673C1.3857 14.253 2.21575 14.9806 3.49028 15.1745C4.29268 15.2966 5.11036 15.3603 5.92294 15.3877C10.57 15.5446 15.2164 15.5557 19.862 15.3011C21.4465 15.2145 22.55 14.4558 22.9123 13.0036C23.1051 12.2279 23.2433 11.4189 23.2477 10.6247C23.2601 8.47083 23.223 6.31547 23.1335 4.16381Z" fill="white"/>
</symbol></svg>