<svg width="18" height="10" viewBox="0 0 18 10" fill="none" xmlns="http://www.w3.org/2000/svg">
<path d="M6.01744 1.35678C5.59884 1.35678 5.28488 1.05528 5.28488 0.653266C5.28488 0.301508 5.59884 0 6.01744 0H14.0756C15.1744 0 16.1163 0.40201 16.8488 1.10553C17.5814 1.80905 18 2.71357 18 3.76884V6.23116C18 7.28643 17.5291 8.19095 16.8488 8.89447C16.1163 9.59799 15.1221 10 14.0756 10H6.01744C4.9186 10 3.97674 9.59799 3.24419 8.89447C2.61628 8.29146 2.19767 7.43719 2.09302 6.53266H0.418605C0.209302 6.53266 0 6.38191 0 6.13065C0 6.03015 0.0523256 5.92965 0.104651 5.82915L1.30814 4.67337L2.51163 3.51759C2.6686 3.36683 2.93023 3.36683 3.13954 3.51759L4.34302 4.67337L5.54651 5.82915C5.70349 5.9799 5.70349 6.23116 5.54651 6.43216C5.38953 6.53266 5.28488 6.58291 5.12791 6.53266H3.55814C3.61047 7.08543 3.87209 7.53769 4.2907 7.88945C4.7093 8.34171 5.33721 8.64322 6.01744 8.64322H14.0756C14.7558 8.64322 15.3837 8.39196 15.8547 7.9397C16.3256 7.48744 16.5872 6.88442 16.5872 6.23116V3.76884C16.5872 3.11558 16.3256 2.51256 15.8547 2.0603C15.3837 1.65829 14.7558 1.35678 14.0756 1.35678H6.01744ZM2.30233 5.72864C2.4593 5.62814 2.61628 5.52764 2.82558 5.52764C3.03488 5.52764 3.13953 5.62814 3.29651 5.72864H4.13372L3.66279 5.27638L2.82558 4.47236L1.93605 5.27638L1.46512 5.72864H2.30233Z" fill="#C78E66"/>
</svg>
